HIERARCHY
ROOT Hips
{
  OFFSET 0 0 0
  CHANNELS 6 Xposition Yposition Zposition Zrotation Xrotation Yrotation
  JOINT Spine
  {
    OFFSET 0 10.1816 0.1315
    CHANNELS 6 Xposition Yposition Zposition Zrotation Xrotation Yrotation
    JOINT Spine1
    {
      OFFSET 0 10.0835 -1.0008
      CHANNELS 6 Xposition Yposition Zposition Zrotation Xrotation Yrotation
      JOINT Spine2
      {
        OFFSET 0 9.1 -1.3734
        CHANNELS 6 Xposition Yposition Zposition Zrotation Xrotation Yrotation
        JOINT Neck
        {
          OFFSET 0 16.6717 -2.5162
          CHANNELS 6 Xposition Yposition Zposition Zrotation Xrotation Yrotation
          JOINT Head
          {
            OFFSET 0 9.6179 1.685
            CHANNELS 6 Xposition Yposition Zposition Zrotation Xrotation Yrotation
            End Site
            {
              OFFSET 0 17.8152 2.585
            }
          }
        }
        JOINT LeftShoulder
        {
          OFFSET 4.5704 10.946 -2.628
          CHANNELS 6 Xposition Yposition Zposition Zrotation Xrotation Yrotation
          JOINT LeftArm
          {
            OFFSET 10.5924 -0.5246 -2.2321
            CHANNELS 6 Xposition Yposition Zposition Zrotation Xrotation Yrotation
            JOINT LeftForeArm
            {
              OFFSET 27.8415 -0.0001 0
              CHANNELS 6 Xposition Yposition Zposition Zrotation Xrotation Yrotation
              JOINT LeftHand
              {
                OFFSET 28.3288 0 0
                CHANNELS 6 Xposition Yposition Zposition Zrotation Xrotation Yrotation
                End Site
                {
                  OFFSET 0 0 0
                }
              }
            }
          }
        }
        JOINT RightShoulder
        {
          OFFSET -4.57 10.9462 -2.628
          CHANNELS 6 Xposition Yposition Zposition Zrotation Xrotation Yrotation
          JOINT RightArm
          {
            OFFSET -10.5928 -0.5248 -2.2321
            CHANNELS 6 Xposition Yposition Zposition Zrotation Xrotation Yrotation
            JOINT RightForeArm
            {
              OFFSET -27.8415 0 0
              CHANNELS 6 Xposition Yposition Zposition Zrotation Xrotation Yrotation
              JOINT RightHand
              {
                OFFSET -28.3288 0 0.0001
                CHANNELS 6 Xposition Yposition Zposition Zrotation Xrotation Yrotation
                End Site
                {
                  OFFSET 0 0 0
                }
              }
            }
          }
        }
      }
    }
  }
  JOINT LeftUpLeg
  {
    OFFSET 8.2078 -6.7517 -1.5996
    CHANNELS 6 Xposition Yposition Zposition Zrotation Xrotation Yrotation
    JOINT LeftLeg
    {
      OFFSET 0 -44.3705 0.2846
      CHANNELS 6 Xposition Yposition Zposition Zrotation Xrotation Yrotation
      JOINT LeftFoot
      {
        OFFSET 0 -44.4279 -2.9822
        CHANNELS 6 Xposition Yposition Zposition Zrotation Xrotation Yrotation
        JOINT LeftToeBase
        {
          OFFSET 0 -8.7287 10.7106
          CHANNELS 6 Xposition Yposition Zposition Zrotation Xrotation Yrotation
          End Site
          {
            OFFSET 0 0 0
          }
        }
      }
    }
  }
  JOINT RightUpLeg
  {
    OFFSET -8.2078 -6.7517 -1.5996
    CHANNELS 6 Xposition Yposition Zposition Zrotation Xrotation Yrotation
    JOINT RightLeg
    {
      OFFSET 0 -44.3705 0.2862
      CHANNELS 6 Xposition Yposition Zposition Zrotation Xrotation Yrotation
      JOINT RightFoot
      {
        OFFSET 0 -44.4277 -2.9838
        CHANNELS 6 Xposition Yposition Zposition Zrotation Xrotation Yrotation
        JOINT RightToeBase
        {
          OFFSET 0 -8.7287 10.7106
          CHANNELS 6 Xposition Yposition Zposition Zrotation Xrotation Yrotation
          End Site
          {
            OFFSET 0 0 0
          }
        }
      }
    }
  }
}
MOTION
Frames:	6
Frame Time:	0.0333333
3.78041 102.633 96.1049 -1.27458 1.08745 0.974953 2.22045e-16 10.1816 0.1315 -0.405937 0.148407 0.0920149 4.44089e-16 10.0835 -1.0008 -0.433943 0.296698 0.152674 8.88178e-16 9.1 -1.3734 -0.433943 0.296697 0.152674 8.88178e-16 16.6717 -2.5162 0.388324 3.14645 0.240564 4.44089e-16 9.6179 1.685 3.29252 1.57244 0.410877 4.5704 10.946 -2.628 -15.034 4.47632 -15.3084 10.5924 -0.5246 -2.2321 -49.128 -7.67236 10.801 27.8415 -0.0001 0 -0.884425 14.7707 -32.2467 28.3288 1.42109e-14 0 -0.251829 20.2461 -0.838958 -4.57 10.9462 -2.628 15.8563 3.30587 5.61723 -10.5928 -0.5248 -2.2321 56.4233 -3.69143 -7.71758 -27.8415 0 0 -6.0335 9.83872 30.4939 -28.3288 0 0.0001 -18.1108 7.36615 18.6075 8.2078 -6.7517 -1.5996 0.497173 -10.0676 9.10476 1.77636e-15 -44.3705 0.2846 1.01846 20.1125 -11.8024 -1.77636e-15 -44.4279 -2.9822 4.28087 -9.96355 0.766613 -1.77636e-15 -8.7287 10.7106 -4.93305 -5.51897 3.50373 -8.2078 -6.7517 -1.5996 -2.65301 -20.6474 -7.67662 1.77636e-15 -44.3705 0.2862 0.540171 52.5715 -3.68179 1.77636e-15 -44.4277 -2.9838 -10.3998 2.01009 1.91917 0 -8.7287 10.7106 2.86412 -6.87381 -2.87068 
3.86421 102.915 100.023 -1.04608 1.35009 2.3558 0 10.1816 0.1315 -0.422239 0.166732 -0.251333 -4.44089e-16 10.0835 -1.0008 -0.376561 0.334415 -0.519807 -4.44089e-16 9.1 -1.3734 -0.376561 0.334415 -0.519807 0 16.6717 -2.5162 0.402846 3.33081 0.364657 -8.88178e-16 9.6179 1.685 3.43619 1.12274 0.656142 4.5704 10.946 -2.628 -14.3774 4.39438 -15.635 10.5924 -0.5246 -2.2321 -48.2448 -6.75042 9.48697 27.8415 -0.0001 1.42109e-14 -1.21125 14.5418 -36.572 28.3288 0 -1.42109e-14 -0.537347 18.3402 -0.883216 -4.57 10.9462 -2.628 16.5616 3.25647 4.8159 -10.5928 -0.5248 -2.2321 55.7728 -4.71842 -7.92181 -27.8415 -7.10543e-15 0 -4.32271 11.1831 24.5612 -28.3288 0 0.0001 -17.0034 6.70806 19.1505 8.2078 -6.7517 -1.5996 0.318963 -6.30703 9.64458 3.55271e-15 -44.3705 0.2846 0.611148 16.9021 -13.5632 -3.55271e-15 -44.4279 -2.9822 4.17974 -10.0445 0.8163 1.77636e-15 -8.7287 10.7106 -4.61044 -6.00109 3.25537 -8.2078 -6.7517 -1.5996 -2.95227 -24.3248 -7.48608 -8.88178e-16 -44.3705 0.2862 0.843521 47.5672 -4.57516 0 -44.4277 -2.9838 -9.56983 -1.0203 1.46779 -1.77636e-15 -8.7287 10.7106 2.16617 -7.60957 -2.73449 
3.91043 102.781 103.881 -0.616439 1.61388 3.53619 -8.88178e-16 10.1816 0.1315 -0.453379 0.209437 -0.535562 -8.88178e-16 10.0835 -1.0008 -0.394482 0.420668 -1.06354 -4.44089e-16 9.1 -1.3734 -0.394483 0.420669 -1.06354 1.11022e-15 16.6717 -2.5162 0.342752 3.13561 0.491585 0 9.6179 1.685 3.62985 0.815198 0.798769 4.5704 10.946 -2.628 -13.8142 4.32315 -15.9207 10.5924 -0.5246 -2.2321 -47.11 -6.00315 8.32704 27.8415 -0.0001 0 -1.46047 13.9717 -41.8694 28.3288 2.84217e-14 -1.42109e-14 -0.918903 16.4879 -0.33744 -4.57 10.9462 -2.628 17.4721 3.24356 4.37913 -10.5928 -0.5248 -2.2321 54.6518 -5.32932 -9.46144 -27.8415 0 0 -2.98732 11.9944 21.4559 -28.3288 0 0.0001 -15.5415 5.86551 18.2463 8.2078 -6.7517 -1.5996 -0.0716632 -2.83915 10.1019 0 -44.3705 0.2846 0.48828 14.3695 -15.5045 -1.77636e-15 -44.4279 -2.9822 4.65578 -11.236 0.968254 0 -8.7287 10.7106 -4.92359 -6.14505 3.47038 -8.2078 -6.7517 -1.5996 -3.50094 -27.2942 -7.35654 0 -44.3705 0.2862 0.611516 41.0906 -4.68758 0 -44.4277 -2.9838 -8.93282 -3.03088 1.10565 -8.88178e-16 -8.7287 10.7106 2.41768 -7.83903 -1.964 
3.93692 102.341 107.991 -0.0764942 1.80319 4.35976 8.88178e-16 10.1816 0.1315 -0.49569 0.231274 -0.734125 -4.44089e-16 10.0835 -1.0008 -0.447083 0.465147 -1.43435 -4.44089e-16 9.1 -1.3734 -0.447083 0.465148 -1.43435 -2.22045e-16 16.6717 -2.5162 0.185207 3.31391 0.606447 0 9.6179 1.685 3.81908 0.274625 0.891842 4.5704 10.946 -2.628 -13.3044 4.22596 -15.6282 10.5924 -0.5246 -2.2321 -46.0594 -5.28395 6.39928 27.8415 -0.0001 0 -1.74104 13.2825 -46.4351 28.3288 -2.84217e-14 0 -0.889911 14.8456 0.128364 -4.57 10.9462 -2.628 18.5302 3.2984 4.53956 -10.5928 -0.5248 -2.2321 53.2084 -5.60433 -12.7037 -27.8415 -7.10543e-15 -1.42109e-14 -2.01706 12.5358 21.1447 -28.3288 1.42109e-14 0.0001 -13.8961 5.00591 16.4847 8.2078 -6.7517 -1.5996 -0.271434 0.80392 10.9356 0 -44.3705 0.2846 -0.0169076 12.1067 -17.3194 0 -44.4279 -2.9822 4.95752 -12.6351 1.16617 0 -8.7287 10.7106 -4.92965 -6.19594 3.472 -8.2078 -6.7517 -1.5996 -4.09753 -29.1818 -7.07335 -2.22045e-15 -44.3705 0.2862 0.049649 33.9474 -4.37554 0 -44.4277 -2.9838 -8.49393 -4.75674 0.839951 8.88178e-16 -8.7287 10.7106 2.29096 -10.2586 -2.02482 
3.97082 101.632 112.059 0.418813 1.90685 4.92522 -8.88178e-16 10.1816 0.1315 -0.469297 0.300867 -0.880172 0 10.0835 -1.0008 -0.395116 0.604323 -1.69892 0 9.1 -1.3734 -0.395115 0.604322 -1.69893 0 16.6717 -2.5162 -0.430859 3.09829 0.798813 0 9.6179 1.685 4.15052 -0.0164697 0.849 4.5704 10.946 -2.628 -13.3243 4.2637 -16.2503 10.5924 -0.5246 -2.2321 -44.6206 -5.2151 5.20798 27.8415 -0.0001 0 -1.91439 12.0965 -51.0671 28.3288 1.42109e-14 0 -0.440168 13.303 0.570323 -4.57 10.9462 -2.628 18.228 3.24602 4.18544 -10.5928 -0.5248 -2.2321 52.6799 -5.42054 -13.6688 -27.8415 0 0 0.258155 13.9402 17.9837 -28.3288 0 0.0001 -13.3009 3.90951 16.2477 8.2078 -6.7517 -1.5996 -0.291423 3.84371 11.8191 -3.55271e-15 -44.3705 0.2846 -0.505673 11.2843 -18.9827 1.77636e-15 -44.4279 -2.9822 5.40155 -14.2587 1.42193 1.77636e-15 -8.7287 10.7106 -4.91065 -6.66247 3.45194 -8.2078 -6.7517 -1.5996 -4.64083 -30.9197 -6.84467 8.88178e-16 -44.3705 0.2862 -0.654019 26.6171 -3.92699 0 -44.4277 -2.9838 -7.87234 -6.50877 0.596395 -8.88178e-16 -8.7287 10.7106 1.80615 -10.1237 -1.2899 
3.99585 100.748 116.249 0.77643 1.93772 5.34053 -1.77636e-15 10.1816 0.1315 -0.397492 0.363389 -0.99867 0 10.0835 -1.0008 -0.322654 0.729104 -1.91759 4.44089e-16 9.1 -1.3734 -0.322654 0.729104 -1.91759 0 16.6717 -2.5162 -0.94345 3.05184 0.928081 0 9.6179 1.685 4.29259 -0.313932 0.836576 4.5704 10.946 -2.628 -13.1373 4.21772 -15.9368 10.5924 -0.5246 -2.2321 -43.6789 -5.20657 2.57569 27.8415 -0.0001 -1.42109e-14 -2.17859 11.1872 -53.7182 28.3288 0 -1.42109e-14 0.680717 12.2223 0.279687 -4.57 10.9462 -2.628 18.5285 3.23461 4.01053 -10.5928 -0.5248 -2.2321 52.1219 -4.74547 -15.7251 -27.8415 -7.10543e-15 7.10543e-15 0.949219 15.2066 17.4913 -28.3288 0 0.0001 -11.7595 3.37342 14.8785 8.2078 -6.7517 -1.5996 0.120703 5.59967 12.4581 -3.55271e-15 -44.3705 0.2846 -0.917629 13.327 -20.2414 0 -44.4279 -2.9822 6.11407 -15.5219 1.68956 1.77636e-15 -8.7287 10.7106 -4.80268 -8.71849 3.33395 -8.2078 -6.7517 -1.5996 -5.06334 -32.5154 -6.65524 -8.88178e-16 -44.3705 0.2862 -1.26919 19.6671 -3.79357 -1.77636e-15 -44.4277 -2.9838 -6.3568 -8.61006 0.417367 -1.77636e-15 -8.7287 10.7106 1.48627 -12.0887 -1.49482 
